<?xml version="1.0" ?><svg id="Layer_1" style="enable-background:new 0 0 512 512;" version="1.1" viewBox="0 0 512 512" xml:space="preserve" xmlns="http://www.w3.org/2000/svg" xmlns:xlink="http://www.w3.org/1999/xlink"><style type="text/css">
	.st0{fill:url(#SVGID_1_);}
	.st1{fill:#4267B2;}
</style><g><g><g><linearGradient gradientUnits="userSpaceOnUse" id="SVGID_1_" x1="152.133" x2="359.8687" y1="76.0947" y2="435.9034"><stop offset="0" style="stop-color:#4267B2"/><stop offset="1" style="stop-color:#8115FF"/></linearGradient><path class="st0" d="M256,463.8c-114.6,0-207.8-93.2-207.8-207.8c0-114.6,93.2-207.8,207.8-207.8S463.8,141.4,463.8,256     C463.8,370.6,370.6,463.8,256,463.8z M216.7,401h64.6V264.2H319l4.9-55.8h-42.6v-21.1c0-1.7,0-6.8,1.4-8.5c0.8-1,2.9-1.5,6.2-1.5     h34.6v-57.5h-42.8c-42.4,0-64,19.2-64,57.2v31.5h-28.4v56.4h28.4V401z"/><path class="st1" d="M256,53.2c27.4,0,53.9,5.4,78.9,15.9c24.1,10.2,45.8,24.8,64.5,43.5c18.6,18.6,33.2,40.3,43.5,64.5     c10.6,25,15.9,51.5,15.9,78.9c0,27.4-5.4,53.9-15.9,78.9c-10.2,24.1-24.8,45.8-43.5,64.5c-18.6,18.6-40.3,33.2-64.5,43.5     c-25,10.6-51.5,15.9-78.9,15.9s-53.9-5.4-78.9-15.9c-24.1-10.2-45.8-24.8-64.5-43.5c-18.6-18.6-33.2-40.3-43.5-64.5     c-10.6-25-15.9-51.5-15.9-78.9c0-27.4,5.4-53.9,15.9-78.9c10.2-24.1,24.8-45.8,43.5-64.5c18.6-18.6,40.3-33.2,64.5-43.5     C202.1,58.6,228.6,53.2,256,53.2 M211.7,203.4h-18.4h-10v10v46.4v10h10h18.4V396v10h10h54.6h10v-10V269.2h28.1h9.2l0.8-9.1     l4.1-45.8l1-10.9h-10.9h-32.2v-16.1c0-2.6,0.2-4.1,0.3-4.9c0.5-0.1,1.2-0.1,2.3-0.1h29.6h10v-10v-47.5v-10h-10h-37.8     c-57,0-69,33.8-69,62.2V203.4 M256,43.2C138.5,43.2,43.2,138.5,43.2,256S138.5,468.8,256,468.8S468.8,373.5,468.8,256     S373.5,43.2,256,43.2L256,43.2z M193.3,259.8v-46.4h28.4c0,0,0-6.7,0-36.5c0-34.3,18.3-52.2,59-52.2c6.6,0,37.8,0,37.8,0v47.5     c0,0-21.2,0-29.6,0c-10.4,0-12.6,4.3-12.6,15.1c0,9,0,26.1,0,26.1h42.2l-4.1,45.8h-38.1V396h-54.6V259.8H193.3L193.3,259.8z"/></g></g></g></svg>