<?xml version="1.0" ?><!DOCTYPE svg  PUBLIC '-//W3C//DTD SVG 1.1//EN'  'http://www.w3.org/Graphics/SVG/1.1/DTD/svg11.dtd'><svg enable-background="new 0 0 512 512" height="512px" id="Layer_1" version="1.1" viewBox="0 0 512 512" width="512px" xml:space="preserve" xmlns="http://www.w3.org/2000/svg" xmlns:xlink="http://www.w3.org/1999/xlink"><g id="social__x2C_media__x2C__vintage__x2C___facebook__x2C_"><g><path d="M256.05,495.946c126.47,0,230.165-97.886,239.197-222.146H16.753    C25.778,398.063,129.48,495.946,256.05,495.946L256.05,495.946z M495.247,238.201C486.215,113.938,382.52,16.054,256.05,16.054    c-126.569,0-230.271,97.884-239.297,222.147H495.247L495.247,238.201z" fill="#1F719D"/><path d="M256.05,431.059c96.479,0,175.008-78.729,175.008-175.107c0-96.277-78.527-175.006-175.008-175.006    c-96.382,0-175.01,78.729-175.01,175.006C81.04,352.33,159.668,431.059,256.05,431.059L256.05,431.059z" fill="#E9D9A8"/><path d="M24.776,238.201h462.545c0.399,5.815,0.601,11.834,0.601,17.749c0,6.021-0.2,12.032-0.601,17.852H24.776    c-0.401-5.819-0.702-11.831-0.702-17.852C24.074,250.035,24.375,244.017,24.776,238.201L24.776,238.201z" fill="#E9D9A8"/><path d="M256.05,412.607c86.252,0,156.559-70.408,156.559-156.657c0-86.25-70.307-156.556-156.559-156.556    c-86.251,0-156.656,70.306-156.656,156.556C99.394,342.199,169.799,412.607,256.05,412.607L256.05,412.607z" fill="#1F719D"/><path d="M330.441,178.074l-166.806,64.337c-11.384,4.568-11.317,10.918-2.075,13.749l41.602,12.984    l15.918,48.804c1.935,5.342,0.981,7.46,6.59,7.46c4.329,0,6.249-1.974,8.66-4.329c1.533-1.5,10.636-10.35,20.799-20.231    l43.273,31.973c7.963,4.394,13.713,2.117,15.696-7.396l28.405-133.86C345.413,179.905,338.061,174.616,330.441,178.074z     M209.691,266.161l93.771-59.16c4.682-2.839,8.974-1.313,5.449,1.815l-80.292,72.445l-3.126,33.343L209.691,266.161z" fill="#E9D9A8" id="path9"/></g></g><g id="Layer_1_1_"/></svg>